<?xml version="1.0" encoding="UTF-8"?>
<svg width="28px" height="20px" viewBox="0 0 28 20" version="1.1" xmlns="http://www.w3.org/2000/svg" xmlns:xlink="http://www.w3.org/1999/xlink">
    <title>email</title>
    <g id="email" stroke="none" stroke-width="1" fill="none" fill-rule="evenodd">
        <g fill="#635BFF" fill-rule="nonzero" id="Path">
            <path d="M27.69,1.68 L26,3.38 L20.43,9.01 L26,14.59 L28,16.59 L28,3 C28,2.53 27.89,2.08 27.69,1.68 L27.69,1.68 Z"></path>
            <path d="M25.93,17.34 L19.01,10.43 L16.13,13.34 C15.54,13.93 14.77,14.23 14,14.23 C13.23,14.23 12.46,13.93 11.87,13.35 L8.97,10.44 L2.04,17.28 L0.56,18.74 C1.1,19.5 2,20 3,20 L25,20 C25.98,20 26.85,19.53 27.39,18.8 L25.93,17.35 L25.93,17.34 L25.93,17.34 Z"></path>
            <path d="M9.54,8.17 L9.55,8.17 L9.81,8.43 C9.82,8.44 9.82,8.45 9.83,8.46 L13.29,11.93 C13.68,12.33 14.32,12.32 14.71,11.93 L18.31,8.31 L24.56,2 L26.26,0.28 C25.88,0.1 25.45,-8.8817842e-16 25,-8.8817842e-16 L3,-8.8817842e-16 C2.54,-8.8817842e-16 2.1,0.11 1.71,0.3 L3.4,2 L9.54,8.17 L9.54,8.17 Z"></path>
            <path d="M7.56,9.01 L2,3.43 L0.3,1.71 C0.11,2.1 1.33226763e-15,2.54 1.33226763e-15,3 L1.33226763e-15,16.48 L2,14.5 L7.56,9.01 Z"></path>
        </g>
    </g>
</svg>