<?xml version="1.0" encoding="UTF-8"?>
<svg width="70px" height="82px" viewBox="0 0 70 82" version="1.1" xmlns="http://www.w3.org/2000/svg" xmlns:xlink="http://www.w3.org/1999/xlink">
    <title>resume</title>
    <g id="Page-1" stroke="none" stroke-width="1" fill="none" fill-rule="evenodd">
        <g id="resume" fill="#635BFF" fill-rule="nonzero">
            <circle id="Oval" cx="23.18" cy="18.39" r="6.39"></circle>
            <path d="M12.77,37.68 L33.58,37.68 C33.9997364,37.68 34.34,37.3397364 34.34,36.92 L34.34,36.46 C34.3344878,30.9946658 29.9053342,26.5655122 24.44,26.56 L21.91,26.56 C16.4446658,26.5655122 12.0155122,30.9946658 12.01,36.46 L12.01,36.92 C12.01,37.3397364 12.3502636,37.68 12.77,37.68 L12.77,37.68 Z" id="Path"></path>
            <path d="M56.38,0.32 L13.62,0.32 C6.44029825,0.32 0.62,6.14029825 0.62,13.32 L0.62,68.68 C0.62,75.8597017 6.44029825,81.68 13.62,81.68 L56.38,81.68 C63.5597017,81.68 69.38,75.8597017 69.38,68.68 L69.38,13.32 C69.38,6.14029825 63.5597017,0.32 56.38,0.32 Z M63.38,68.67 C63.38,72.5359932 60.2459932,75.67 56.38,75.67 L13.62,75.67 C9.75400675,75.67 6.62,72.5359932 6.62,68.67 L6.62,13.32 C6.62,9.45400675 9.75400675,6.32 13.62,6.32 L56.38,6.32 C60.2459932,6.32 63.38,9.45400675 63.38,13.32 L63.38,68.67 Z" id="Shape"></path>
            <path d="M57.65,18.69 L40.3999999,18.69 C39.3282032,18.69 38.3378221,19.2617967 37.8019237,20.19 C37.2660253,21.1182032 37.2660253,22.2617968 37.8019237,23.19 C38.3378221,24.1182033 39.3282032,24.69 40.3999999,24.69 L57.65,24.69 C59.3068542,24.69 60.65,23.3468542 60.65,21.69 C60.65,20.0331458 59.3068542,18.69 57.65,18.69 L57.65,18.69 Z" id="Path"></path>
            <path d="M57.65,30.69 L40.4,30.69 C38.7431458,30.69 37.4,32.0331458 37.4,33.69 C37.4,35.3468542 38.7431458,36.69 40.4,36.69 L57.65,36.69 C59.3068542,36.69 60.65,35.3468542 60.65,33.69 C60.65,32.0331458 59.3068542,30.69 57.65,30.69 Z" id="Path"></path>
            <path d="M57.65,48.69 L13.4,48.69 C11.7431458,48.69 10.4,50.0331458 10.4,51.69 C10.4,53.3468542 11.7431458,54.69 13.4,54.69 L57.65,54.69 C59.3068542,54.69 60.65,53.3468542 60.65,51.69 C60.65,50.0331458 59.3068542,48.69 57.65,48.69 L57.65,48.69 Z" id="Path"></path>
            <path d="M57.65,60.69 L13.4,60.69 C11.7431458,60.69 10.4,62.0331458 10.4,63.69 C10.4,65.3468542 11.7431458,66.69 13.4,66.69 L57.65,66.69 C59.3068542,66.69 60.65,65.3468542 60.65,63.69 C60.65,62.0331458 59.3068542,60.69 57.65,60.69 Z" id="Path"></path>
        </g>
    </g>
</svg>